P2
4 5
255
0   255 0   0
0   0   255 0
0   0   0   255
0   80  160 240
240 160 80  0
